<?xml version="1.0" encoding="UTF-8"?>
<!DOCTYPE svg PUBLIC "-//W3C//DTD SVG 1.1//EN" "http://www.w3.org/Graphics/SVG/1.1/DTD/svg11.dtd">
<!-- Creator: CorelDRAW X7 -->
<svg xmlns="http://www.w3.org/2000/svg" xml:space="preserve" width="299.576mm" height="288.21mm" version="1.1" style="shape-rendering:geometricPrecision; text-rendering:geometricPrecision; image-rendering:optimizeQuality; fill-rule:evenodd; clip-rule:evenodd"
viewBox="0 0 22432 21581"
 xmlns:xlink="http://www.w3.org/1999/xlink">
 <defs>
  <style type="text/css">
   <![CDATA[
    .str1 {stroke:blue;stroke-width:5.70584}
    .str0 {stroke:red;stroke-width:5.70584}
    .fil1 {fill:none}
    .fil0 {fill:none;fill-rule:nonzero}
   ]]>
  </style>
 </defs>
 <g id="Ebene_x0020_1">
  <metadata id="CorelCorpID_0Corel-Layer"/>
  <g id="_2510206756432">
   <path class="fil0 str0" d="M278 18328c0,5 -1,10 -2,14 -2,4 -4,8 -8,11 -3,3 -6,5 -10,7 -5,2 -9,3 -14,3l-11 0c-5,0 -9,-1 -13,-3 -4,-2 -8,-4 -11,-7 -3,-3 -6,-7 -8,-11 -1,-4 -2,-9 -2,-14l0 -50c0,-5 1,-9 2,-13 2,-4 5,-8 8,-11 3,-3 7,-6 11,-8 4,-1 8,-2 13,-2l11 0c5,0 9,1 13,2 4,2 8,5 11,8 3,3 6,7 8,11 1,4 2,8 2,13l0 141c0,4 -1,9 -2,13 -2,4 -4,8 -8,11 -3,3 -6,5 -10,7 -5,2 -9,3 -14,3l-11 0c-5,0 -9,-1 -13,-3 -4,-2 -8,-4 -11,-7 -3,-3 -6,-7 -8,-11 -1,-4 -2,-9 -2,-13l0 -14 0 14c0,4 1,9 2,13 2,4 5,8 8,11 3,3 7,5 11,7 4,2 8,3 13,3l11 0c5,0 9,-1 14,-3 4,-2 7,-4 10,-7 4,-3 6,-7 8,-11 1,-4 2,-9 2,-13l0 -141c0,-5 -1,-9 -2,-13 -2,-4 -5,-8 -8,-11 -3,-3 -7,-6 -11,-8 -4,-1 -8,-2 -13,-2l-11 0c-5,0 -9,1 -13,2 -4,2 -8,5 -11,8 -3,3 -6,7 -8,11 -1,4 -2,8 -2,13l0 50c0,5 1,10 2,14 2,4 5,8 8,11 3,3 7,5 11,7 4,2 8,3 13,3l11 0c5,0 9,-1 14,-3 4,-2 7,-4 10,-7 4,-3 6,-7 8,-11 1,-4 2,-9 2,-14z"/>
   <rect class="fil1 str1" transform="matrix(3.31057E-014 -0.375 0.6 4.36995E-014 10157.4 18142.5)" width="1498" height="374"/>
   <rect class="fil1 str1" transform="matrix(3.31057E-014 -0.375 0.6 4.36995E-014 13039.4 19115.9)" width="1498" height="374"/>
   <rect class="fil1 str1" transform="matrix(3.31057E-014 -0.375 0.6 4.36995E-014 5834.44 18142.5)" width="1498" height="374"/>
   <rect class="fil1 str1" transform="matrix(3.31057E-014 -0.375 0.6 4.36995E-014 11598.4 19115.9)" width="1498" height="374"/>
   <rect class="fil1 str1" transform="matrix(3.31057E-014 -0.375 0.6 4.36995E-014 7275.44 19115.9)" width="1498" height="374"/>
   <rect class="fil1 str1" transform="matrix(3.31057E-014 -0.375 0.6 4.36995E-014 5834.44 19115.9)" width="1498" height="374"/>
   <polygon class="fil1 str1" points="12769,19322 12769,19546 12020,19546 12020,19322 7005,19322 7005,19546 6256,19546 6256,19322 1241,19322 1241,19546 492,19546 492,19322 3,19322 3,17375 16177,17375 16177,19322 "/>
  </g>
  <g id="_2510206757904">
   <path class="fil0 str0" d="M231 16174c-4,0 -9,0 -13,-2 -4,-2 -7,-4 -10,-7 -3,-3 -5,-6 -7,-10 -1,-4 -2,-8 -2,-13l0 -38c0,-4 1,-8 2,-12 2,-4 4,-7 7,-10 3,-3 6,-6 10,-7 4,-2 9,-3 13,-3l10 0c4,0 8,1 12,3 4,1 8,4 11,7 3,3 5,6 7,10 1,4 2,8 2,12l0 38c0,5 -1,9 -2,13 -2,4 -4,7 -7,10 -3,3 -7,5 -11,7 -4,2 -8,2 -12,2l-10 0zm-5 107c-5,0 -8,-1 -12,-2 -4,-2 -7,-4 -10,-7 -2,-2 -4,-6 -6,-9 -2,-4 -2,-8 -2,-12l0 -47c0,-4 0,-8 2,-11 2,-4 4,-7 6,-10 3,-3 6,-5 10,-6 4,-2 7,-3 12,-3l20 0c5,0 8,1 12,3 4,1 7,3 9,6 3,3 5,6 7,10 1,3 2,7 2,11l0 47c0,4 -1,8 -2,12 -2,3 -4,7 -7,9 -2,3 -5,5 -9,7 -4,1 -7,2 -12,2l-20 0zm5 -107c-4,0 -9,0 -13,-2 -4,-2 -7,-4 -10,-7 -3,-3 -5,-6 -7,-10 -1,-4 -2,-8 -2,-13l0 -38c0,-4 1,-8 2,-12 2,-4 4,-7 7,-10 3,-3 6,-6 10,-7 4,-2 9,-3 13,-3l10 0c4,0 8,1 12,3 4,1 8,4 11,7 3,3 5,6 7,10 1,4 2,8 2,12l0 38c0,5 -1,9 -2,13 -2,4 -4,7 -7,10 -3,3 -7,5 -11,7 -4,2 -8,2 -12,2l-10 0zm-5 107c-5,0 -8,-1 -12,-2 -4,-2 -7,-4 -10,-7 -2,-2 -4,-6 -6,-9 -2,-4 -2,-8 -2,-12l0 -47c0,-4 0,-8 2,-11 2,-4 4,-7 6,-10 3,-3 6,-5 10,-6 4,-2 7,-3 12,-3l20 0c5,0 8,1 12,3 4,1 7,3 9,6 3,3 5,6 7,10 1,3 2,7 2,11l0 47c0,4 -1,8 -2,12 -2,3 -4,7 -7,9 -2,3 -5,5 -9,7 -4,1 -7,2 -12,2l-20 0z"/>
   <rect class="fil1 str1" transform="matrix(3.31057E-014 -0.375 0.6 4.36995E-014 10157.4 16944.4)" width="1498" height="374"/>
   <rect class="fil1 str1" transform="matrix(3.31057E-014 -0.375 0.6 4.36995E-014 5834.44 16944.4)" width="1498" height="374"/>
   <rect class="fil1 str1" transform="matrix(3.31057E-014 -0.375 0.6 4.36995E-014 11598.4 15971)" width="1498" height="374"/>
   <rect class="fil1 str1" transform="matrix(3.31057E-014 -0.375 0.6 4.36995E-014 1511.43 15971)" width="1498" height="374"/>
   <polygon class="fil1 str1" points="3,15203 16177,15203 16177,17150 13489,17150 13489,17375 12741,17375 12741,17150 7005,17150 7005,17375 6256,17375 6256,17150 1241,17150 1241,17375 492,17375 492,17150 3,17150 "/>
  </g>
  <g id="_2510206760016">
   <polygon class="fil0 str0" points="254,7383 178,7533 284,7533 178,7533 254,7383 254,7592 "/>
   <rect class="fil1 str1" transform="matrix(3.31057E-014 -0.375 0.6 4.36995E-014 10157.4 7284.91)" width="1498" height="374"/>
   <rect class="fil1 str1" transform="matrix(3.31057E-014 -0.375 0.6 4.36995E-014 10157.4 8258.35)" width="1498" height="374"/>
   <rect class="fil1 str1" transform="matrix(3.31057E-014 -0.375 0.6 4.36995E-014 5834.44 7284.91)" width="1498" height="374"/>
   <rect class="fil1 str1" transform="matrix(3.31057E-014 -0.375 0.6 4.36995E-014 5834.44 8258.35)" width="1498" height="374"/>
   <polygon class="fil1 str1" points="3,6517 16177,6517 16177,8464 12423,8464 12423,8689 11674,8689 11674,8464 7005,8464 7005,8689 6256,8689 6256,8464 1241,8464 1241,8689 492,8689 492,8464 3,8464 "/>
  </g>
  <g id="_2510206754800">
   <path class="fil0 str0" d="M178 3250l70 -123c4,-7 6,-14 8,-22 2,-8 3,-15 3,-23l0 -15c0,-7 -3,-13 -8,-18 -5,-5 -11,-8 -18,-8l-20 0c-7,0 -13,3 -18,8 -5,5 -8,11 -8,18l0 20 0 -20c0,-7 3,-13 8,-18 5,-5 11,-8 18,-8l20 0c7,0 13,3 18,8 5,5 8,11 8,18l0 15c0,8 -1,15 -3,23 -2,8 -4,15 -8,22l-70 123 86 0 -86 0z"/>
   <rect class="fil1 str1" transform="matrix(1.32423E-014 -0.375 0.6 1.1918E-014 5834.44 3915.32)" width="1498" height="374"/>
   <rect class="fil1 str1" transform="matrix(1.32423E-014 -0.375 0.6 1.1918E-014 7275.44 2941.88)" width="1498" height="374"/>
   <rect class="fil1 str1" transform="matrix(1.32423E-014 -0.375 0.6 1.1918E-014 8716.44 3915.32)" width="1498" height="374"/>
   <polygon class="fil1 str1" points="12048,4346 11300,4346 11300,4121 7005,4121 7005,4346 6256,4346 6256,4121 1241,4121 1241,4346 492,4346 492,4121 3,4121 3,2174 16177,2174 16177,4121 12048,4121 "/>
  </g>
  <g id="_2510208055952">
   <polygon class="fil0 str0" points="221,870 221,1079 221,870 194,899 "/>
   <rect class="fil1 str1" transform="matrix(1.32423E-014 -0.375 0.6 1.1918E-014 5834.44 770.371)" width="1498" height="374"/>
   <rect class="fil1 str1" transform="matrix(1.32423E-014 -0.375 0.6 1.1918E-014 7275.44 1743.81)" width="1498" height="374"/>
   <rect class="fil1 str1" transform="matrix(1.32423E-014 -0.375 0.6 1.1918E-014 10157.4 770.371)" width="1498" height="374"/>
   <rect class="fil1 str1" transform="matrix(1.32423E-014 -0.375 0.6 1.1918E-014 4393.44 770.371)" width="1498" height="374"/>
   <polygon class="fil1 str1" points="3,3 16177,3 16177,1950 13864,1950 13864,2166 13864,2174 13115,2174 13115,1950 7005,1950 7005,2174 6256,2174 6256,1950 1241,1950 1241,2174 492,2174 492,1950 3,1950 "/>
  </g>
  <g id="_2510208059248">
   <path class="fil0 str0" d="M179 9731c0,4 1,8 3,12 1,4 4,8 7,11 3,3 6,6 10,8 5,2 9,3 14,3l12 0c5,0 9,-1 13,-3 4,-2 8,-4 11,-7 3,-3 5,-7 7,-11 2,-4 3,-8 3,-13l0 -56c0,-4 -1,-9 -3,-13 -2,-4 -4,-7 -7,-10 -3,-3 -7,-6 -11,-8 -4,-1 -8,-2 -13,-2l-12 0c-5,0 -9,1 -13,2 -3,2 -6,5 -9,8 -2,3 -4,6 -6,10 -1,4 -2,9 -2,13l0 -119 70 0 -70 0 0 119c0,-4 1,-9 2,-13 2,-4 4,-7 6,-10 3,-3 6,-6 9,-8 4,-1 8,-2 13,-2l12 0c5,0 9,1 13,2 4,2 8,5 11,8 3,3 5,6 7,10 2,4 3,9 3,13l0 56c0,5 -1,9 -3,13 -2,4 -4,8 -7,11 -3,3 -7,5 -11,7 -4,2 -8,3 -13,3l-12 0c-5,0 -9,-1 -14,-3 -4,-2 -7,-5 -10,-8 -3,-3 -6,-7 -7,-11 -2,-4 -3,-8 -3,-12l0 -9 0 9z"/>
   <rect class="fil1 str1" transform="matrix(1.32423E-014 -0.375 0.6 1.1918E-014 10157.4 9456.43)" width="1498" height="374"/>
   <rect class="fil1 str1" transform="matrix(1.32423E-014 -0.375 0.6 1.1918E-014 10157.4 10429.9)" width="1498" height="374"/>
   <rect class="fil1 str1" transform="matrix(1.32423E-014 -0.375 0.6 1.1918E-014 5834.44 9456.43)" width="1498" height="374"/>
   <rect class="fil1 str1" transform="matrix(1.32423E-014 -0.375 0.6 1.1918E-014 5834.44 10429.9)" width="1498" height="374"/>
   <polygon class="fil1 str1" points="3,8689 16177,8689 16177,10636 12423,10636 12423,10860 11674,10860 11674,10636 7005,10636 7005,10860 6256,10860 6256,10636 1241,10636 1241,10860 492,10860 492,10636 3,10636 "/>
  </g>
  <polygon class="fil1 str1" points="16720,302 17281,302 17281,527 18461,527 18461,1875 18255,1875 18255,2099 17693,2099 17693,1875 16514,1875 16514,527 16720,527 "/>
  <polygon class="fil1 str1" points="18704,302 19266,302 19266,527 20445,527 20445,1875 20239,1875 20239,2099 19678,2099 19678,1875 18498,1875 18498,527 18704,527 "/>
  <polygon class="fil1 str1" points="20688,302 21250,302 21250,527 22429,527 22429,1875 22223,1875 22223,2099 21662,2099 21662,1875 20482,1875 20482,527 20688,527 "/>
  <polygon class="fil1 str1" points="16720,1912 17281,1912 17281,2137 18461,2137 18461,3485 18255,3485 18255,3709 17693,3709 17693,3485 16514,3485 16514,2137 16720,2137 "/>
  <polygon class="fil1 str1" points="18704,1912 19266,1912 19266,2137 20445,2137 20445,3485 20239,3485 20239,3709 19678,3709 19678,3485 18498,3485 18498,2137 18704,2137 "/>
  <polygon class="fil1 str1" points="20688,1912 21250,1912 21250,2137 22429,2137 22429,3485 22223,3485 22223,3709 21662,3709 21662,3485 20482,3485 20482,2137 20688,2137 "/>
  <polygon class="fil1 str1" points="16720,3522 17281,3522 17281,3747 18461,3747 18461,5095 18255,5095 18255,5319 17693,5319 17693,5095 16514,5095 16514,3747 16720,3747 "/>
  <polygon class="fil1 str1" points="18704,3522 19266,3522 19266,3747 20445,3747 20445,5095 20239,5095 20239,5319 19678,5319 19678,5095 18498,5095 18498,3747 18704,3747 "/>
  <polygon class="fil1 str1" points="20688,3522 21250,3522 21250,3747 22429,3747 22429,5095 22223,5095 22223,5319 21662,5319 21662,5095 20482,5095 20482,3747 20688,3747 "/>
  <polygon class="fil1 str1" points="6162,19736 6162,19961 5956,19961 5956,21354 7135,21354 7135,21578 7697,21578 7697,21354 7903,21354 7903,19961 6723,19961 6723,19736 "/>
  <polygon class="fil1 str1" points="4177,19736 4177,19961 3971,19961 3971,21354 5151,21354 5151,21578 5712,21578 5712,21354 5918,21354 5918,19961 4739,19961 4739,19736 "/>
  <polygon class="fil1 str1" points="2193,19736 2193,19961 1987,19961 1987,21354 3167,21354 3167,21578 3728,21578 3728,21354 3934,21354 3934,19961 2755,19961 2755,19736 "/>
  <polygon class="fil1 str1" points="14099,19736 14099,19961 13893,19961 13893,21354 15072,21354 15072,21578 15634,21578 15634,21354 15840,21354 15840,19961 14661,19961 14661,19736 "/>
  <polygon class="fil1 str1" points="12115,19736 12115,19961 11909,19961 11909,21354 13088,21354 13088,21578 13650,21578 13650,21354 13856,21354 13856,19961 12676,19961 12676,19736 "/>
  <polygon class="fil1 str1" points="10130,19736 10130,19961 9924,19961 9924,21354 11104,21354 11104,21578 11665,21578 11665,21354 11871,21354 11871,19961 10692,19961 10692,19736 "/>
  <polygon class="fil1 str1" points="8146,19736 8146,19961 7940,19961 7940,21354 9119,21354 9119,21578 9681,21578 9681,21354 9887,21354 9887,19961 8708,19961 8708,19736 "/>
  <polygon class="fil1 str1" points="3,21496 3,19961 209,19961 209,19736 770,19736 770,19961 1950,19961 1950,21496 "/>
  <polygon class="fil1 str1" points="16514,6892 16514,5357 16720,5357 16720,5132 17281,5132 17281,5357 18461,5357 18461,6892 "/>
  <polygon class="fil1 str1" points="18498,6892 18498,5357 18704,5357 18704,5132 19266,5132 19266,5357 20445,5357 20445,6892 "/>
  <polygon class="fil1 str1" points="20482,6892 20482,5357 20688,5357 20688,5132 21250,5132 21250,5357 22429,5357 22429,6892 "/>
  <polygon class="fil1 str1" points="16514,6929 16514,8464 16720,8464 16720,8689 17281,8689 17281,8464 18461,8464 18461,6929 "/>
  <polygon class="fil1 str1" points="18498,6929 18498,8464 18704,8464 18704,8689 19266,8689 19266,8464 20445,8464 20445,6929 "/>
  <polygon class="fil1 str1" points="20482,6929 20482,8464 20688,8464 20688,8689 21250,8689 21250,8464 22429,8464 22429,6929 "/>
  <g id="_2510258249616">
   <path class="fil0 str0" d="M199 11852c0,-4 1,-9 3,-13 2,-4 4,-8 7,-11 4,-3 7,-5 11,-7 5,-2 9,-3 14,-3l11 0c4,0 9,1 13,3 4,2 8,4 11,7 3,3 5,7 7,11 2,4 3,9 3,13l0 51c0,5 -1,9 -3,13 -2,5 -4,8 -7,11 -3,4 -7,6 -11,8 -4,2 -9,3 -13,3l-11 0c-5,0 -9,-1 -14,-3 -4,-2 -7,-5 -11,-8 -3,-3 -5,-7 -7,-11 -2,-4 -3,-8 -3,-13l0 -140c0,-5 1,-9 3,-14 2,-4 4,-7 7,-10 4,-4 7,-6 11,-8 5,-1 9,-2 14,-2l11 0c4,0 9,1 13,2 4,2 8,4 11,8 3,3 5,6 7,10 2,5 3,9 3,14l0 13 0 -13c0,-5 -1,-9 -3,-14 -2,-4 -4,-7 -7,-10 -3,-4 -7,-6 -11,-8 -4,-1 -9,-2 -13,-2l-11 0c-5,0 -9,1 -14,2 -4,2 -7,4 -11,8 -3,3 -5,6 -7,10 -2,5 -3,9 -3,14l0 140c0,5 1,9 3,13 2,4 4,8 7,11 4,3 7,6 11,8 5,2 9,3 14,3l11 0c4,0 9,-1 13,-3 4,-2 8,-4 11,-8 3,-3 5,-6 7,-11 2,-4 3,-8 3,-13l0 -51c0,-4 -1,-9 -3,-13 -2,-4 -4,-8 -7,-11 -3,-3 -7,-5 -11,-7 -4,-2 -9,-3 -13,-3l-11 0c-5,0 -9,1 -14,3 -4,2 -7,4 -11,7 -3,3 -5,7 -7,11 -2,4 -3,9 -3,13z"/>
   <rect class="fil1 str1" transform="matrix(1.29925E-014 -0.375 0.6 1.15184E-014 10157.4 11627.9)" width="1498" height="374"/>
   <rect class="fil1 str1" transform="matrix(1.29925E-014 -0.375 0.6 1.15184E-014 14480.4 12601.4)" width="1498" height="374"/>
   <rect class="fil1 str1" transform="matrix(1.29925E-014 -0.375 0.6 1.15184E-014 5834.44 12601.4)" width="1498" height="374"/>
   <rect class="fil1 str1" transform="matrix(1.29925E-014 -0.375 0.6 1.15184E-014 5834.44 11627.9)" width="1498" height="374"/>
   <rect class="fil1 str1" transform="matrix(1.29925E-014 -0.375 0.6 1.15184E-014 10157.4 12601.4)" width="1498" height="374"/>
   <polygon class="fil1 str1" points="13172,12807 13172,13032 12423,13032 12423,12807 7005,12807 7005,13032 6256,13032 6256,12807 1241,12807 1241,13032 492,13032 492,12807 3,12807 3,10860 16177,10860 16177,12807 "/>
  </g>
  <g id="_2510258243248">
   <path class="fil0 str0" d="M178 5390c0,4 1,8 2,12 2,4 4,7 7,10 3,3 6,5 10,7 4,2 8,3 13,3l16 0c4,0 8,-1 12,-3 4,-1 7,-4 10,-7 3,-2 5,-6 7,-10 2,-3 3,-7 3,-12l0 -44c0,-5 -1,-9 -3,-13 -2,-3 -4,-7 -7,-10 -3,-3 -7,-5 -10,-7 -4,-1 -8,-2 -12,-2l-16 0 16 -1c4,0 8,-1 12,-2 3,-2 7,-4 10,-7 3,-3 5,-6 7,-10 2,-4 3,-8 3,-12l0 -38c0,-4 -1,-8 -3,-12 -2,-4 -4,-7 -7,-10 -3,-3 -6,-5 -10,-7 -4,-2 -8,-2 -12,-2l-16 0c-5,0 -9,0 -13,2 -4,2 -7,4 -10,7 -3,3 -5,6 -7,10 -1,4 -2,8 -2,12l0 16 0 -16c0,-4 1,-8 2,-12 2,-4 4,-7 7,-10 3,-3 6,-5 10,-7 4,-2 8,-2 13,-2l16 0c4,0 8,0 12,2 4,2 7,4 10,7 3,3 5,6 7,10 2,4 3,8 3,12l0 38c0,4 -1,8 -3,12 -2,4 -4,7 -7,10 -3,3 -7,5 -10,7 -4,1 -8,2 -12,2l-16 1 16 0c4,0 8,1 12,2 3,2 7,4 10,7 3,3 5,7 7,10 2,4 3,8 3,13l0 44c0,5 -1,9 -3,12 -2,4 -4,8 -7,10 -3,3 -6,6 -10,7 -4,2 -8,3 -12,3l-16 0c-5,0 -9,-1 -13,-3 -4,-2 -7,-4 -10,-7 -3,-3 -5,-6 -7,-10 -1,-4 -2,-8 -2,-12l0 -11 0 11z"/>
   <rect class="fil1 str1" transform="matrix(-6.62114E-015 -0.375 0.6 -1.98634E-014 10157.4 6086.84)" width="1498" height="374"/>
   <rect class="fil1 str1" transform="matrix(-6.62114E-015 -0.375 0.6 -1.98634E-014 5834.44 5113.4)" width="1498" height="374"/>
   <rect class="fil1 str1" transform="matrix(-6.62114E-015 -0.375 0.6 -1.98634E-014 5834.44 6086.84)" width="1498" height="374"/>
   <polygon class="fil1 str1" points="3,4346 16177,4346 16177,6293 12423,6293 12236,6293 12236,6517 11674,6517 11487,6517 11487,6293 7005,6293 7005,6517 6256,6517 6256,6293 1241,6293 1241,6517 492,6517 492,6293 3,6293 "/>
   <rect class="fil1 str1" x="8716" y="4552" width="225" height="562"/>
  </g>
  <g id="_2510258246096">
   <g>
    <rect class="fil1 str1" transform="matrix(-2.64845E-014 -0.375 0.6 -5.16449E-014 10157.4 13799.5)" width="1498" height="374"/>
    <rect class="fil1 str1" transform="matrix(-2.64845E-014 -0.375 0.6 -5.16449E-014 1511.43 14772.9)" width="1498" height="374"/>
    <rect class="fil1 str1" transform="matrix(-2.64845E-014 -0.375 0.6 -5.16449E-014 11598.4 14772.9)" width="1498" height="374"/>
    <rect class="fil1 str1" transform="matrix(-2.64845E-014 -0.375 0.6 -5.16449E-014 5834.44 13799.5)" width="1498" height="374"/>
    <polygon class="fil1 str1" points="3,13032 16177,13032 16177,14979 12610,14979 12610,15203 11861,15203 11861,14979 7005,14979 7005,15203 6256,15203 6256,14979 1241,14979 1241,15203 492,15203 492,14979 3,14979 "/>
    <polygon class="fil0 str0" points="260,13899 179,13899 260,13899 195,14108 "/>
   </g>
   <rect class="fil1 str1" x="14480" y="13238" width="225" height="562"/>
  </g>
 </g>
</svg>
