<?xml version="1.0" encoding="UTF-8"?>
<!DOCTYPE svg PUBLIC "-//W3C//DTD SVG 1.1//EN" "http://www.w3.org/Graphics/SVG/1.1/DTD/svg11.dtd">
<!-- Creator: CorelDRAW X7 -->
<svg xmlns="http://www.w3.org/2000/svg" xml:space="preserve" width="230.076mm" height="230.076mm" version="1.1" style="shape-rendering:geometricPrecision; text-rendering:geometricPrecision; image-rendering:optimizeQuality; fill-rule:evenodd; clip-rule:evenodd"
viewBox="0 0 8201 8201"
 xmlns:xlink="http://www.w3.org/1999/xlink">
 <defs>
  <style type="text/css">
   <![CDATA[
    .str0 {stroke:blue;stroke-width:2.71612}
    .str1 {stroke:red;stroke-width:2.71612}
    .str2 {stroke:red;stroke-width:2.71612}
    .fil0 {fill:none}
    .fil1 {fill:none;fill-rule:nonzero}
   ]]>
  </style>
 </defs>
 <g id="Ebene_x0020_1">
  <metadata id="CorelCorpID_0Corel-Layer"/>
  <path class="fil0 str0" d="M7665 1l-7664 0 0 8199 8199 0 0 -7664m-535 -535l535 535"/>
 </g>
 <g id="Ebene_x0020_2">
  <metadata id="CorelCorpID_1Corel-Layer"/>
  <path class="fil0 str1" d="M5985 6357l1879 0 0 -749 -1790 0m-356 0l-1283 0 0 749 1193 0"/>
  <path class="fil0 str1" d="M6163 4858l1701 0 0 -749 -1701 0m-356 0l-686 0 0 749 686 0"/>
  <polyline class="fil0 str1" points="3584,7106 5121,7106 5121,7855 3244,7855 3244,7159 "/>
  <polyline class="fil0 str1" points="6493,7106 5121,7106 5121,7855 7864,7855 7864,7106 6849,7106 "/>
  <rect class="fil0 str0" x="5807" y="4805" width="356" height="107"/>
  <rect class="fil0 str0" x="5718" y="5554" width="356" height="107"/>
  <rect class="fil0 str0" x="5628" y="6303" width="356" height="107"/>
  <rect class="fil0 str0" x="6493" y="7052" width="356" height="107"/>
  <polygon class="fil1 str2" points="6205,4787 6205,4685 6274,4685 6205,4685 6205,4586 6274,4586 6205,4586 6205,4787 6280,4787 "/>
  <polygon id="1" class="fil1 str2" points="6377,4586 6377,4787 "/>
  <polygon id="2" class="fil1 str2" points="6499,4586 6593,4787 6593,4586 6593,4787 6499,4586 6499,4787 "/>
  <path id="3" class="fil1 str2" d="M6697 4756c0,5 1,9 2,13 2,4 5,8 7,11 3,3 7,5 11,7 4,2 8,2 13,2l18 0c4,0 9,0 13,-2 4,-2 7,-4 10,-7 3,-3 5,-7 7,-11 2,-4 3,-8 3,-13l-1 -18c0,-8 -1,-15 -3,-20 -1,-5 -4,-9 -6,-13 -3,-3 -5,-6 -8,-8 -2,-1 -4,-3 -6,-4l-43 -36c-6,-5 -10,-9 -13,-14 -2,-5 -4,-9 -4,-13 -1,-4 -1,-7 -1,-9 1,-3 1,-4 1,-4 0,-4 1,-9 2,-13 2,-4 5,-7 7,-10 3,-3 7,-6 11,-8 4,-1 8,-2 13,-2l18 0c4,0 9,1 13,2 4,2 7,5 10,8 3,3 5,6 7,10 2,4 3,9 3,13l0 9 0 -9c0,-4 -1,-9 -3,-13 -2,-4 -4,-7 -7,-10 -3,-3 -6,-6 -10,-8 -4,-1 -9,-2 -13,-2l-18 0c-5,0 -9,1 -13,2 -4,2 -8,5 -11,8 -2,3 -5,6 -7,10 -1,4 -2,9 -2,13 0,0 0,1 -1,4 0,2 0,5 1,9 0,4 2,8 4,13 3,5 7,9 13,14l43 36c2,1 4,3 6,4 3,2 5,5 8,8 2,4 5,8 6,13 2,5 3,12 3,20l1 18c0,5 -1,9 -3,13 -2,4 -4,8 -7,11 -3,3 -6,5 -10,7 -4,2 -9,2 -13,2l-18 0c-5,0 -9,0 -13,-2 -4,-2 -8,-4 -11,-7 -2,-3 -5,-7 -7,-11 -1,-4 -2,-8 -2,-13l0 -17 0 17z"/>
  <path class="fil1 str2" d="M6212 5535l0 -201 49 0c4,0 9,1 13,3 4,2 8,4 11,7 3,4 5,7 7,12 2,4 3,8 3,13l0 132c0,5 -1,9 -3,13 -2,4 -4,8 -7,11 -3,3 -7,6 -11,8 -4,1 -9,2 -13,2l-49 0zm0 0l0 -201 49 0c4,0 9,1 13,3 4,2 8,4 11,7 3,4 5,7 7,12 2,4 3,8 3,13l0 132c0,5 -1,9 -3,13 -2,4 -4,8 -7,11 -3,3 -7,6 -11,8 -4,1 -9,2 -13,2l-49 0z"/>
  <path id="1" class="fil1 str2" d="M6487 5535l0 -73c0,-4 0,-8 -2,-11 -1,-4 -3,-8 -6,-11 -2,-2 -6,-5 -10,-7 -4,-1 -9,-2 -15,-2 6,0 11,1 15,2 4,2 8,5 10,7 3,3 5,7 6,11 2,3 2,7 2,11l0 73zm-80 0l0 -201 42 0c5,0 10,1 15,3 5,2 10,5 14,8 3,4 7,8 9,12 2,5 3,10 3,15l0 21c0,5 -1,10 -3,15 -2,4 -6,8 -9,12 -4,3 -9,6 -14,8 -5,2 -10,3 -15,3l-42 0 42 0c5,0 10,-1 15,-3 5,-2 10,-5 14,-8 3,-4 7,-8 9,-12 2,-5 3,-10 3,-15l0 -21c0,-5 -1,-10 -3,-15 -3,-4 -6,-8 -10,-12 -4,-3 -8,-6 -13,-8 -5,-2 -10,-3 -15,-3l-42 0 0 201z"/>
  <polygon id="2" class="fil1 str2" points="6603,5535 6603,5434 6672,5434 6603,5434 6603,5334 6672,5334 6603,5334 6603,5535 6678,5535 "/>
  <polygon id="3" class="fil1 str2" points="6775,5334 6775,5535 "/>
  <polygon class="fil1 str2" points="6242,7594 6152,7795 6242,7795 6152,7795 6242,7594 6156,7594 "/>
  <polygon id="1" class="fil1 str2" points="6338,7795 6338,7694 6407,7694 6338,7694 6338,7595 6407,7595 6338,7595 6338,7795 6413,7795 "/>
  <polygon id="2" class="fil1 str2" points="6510,7694 6595,7694 6595,7795 6595,7595 6595,7694 6510,7694 6510,7595 6510,7795 "/>
  <polygon id="3" class="fil1 str2" points="6721,7595 6815,7795 6815,7595 6815,7795 6721,7595 6721,7795 "/>
  <path class="fil1 str2" d="M5315 7046c0,4 1,9 3,13 1,4 4,7 7,10 2,3 6,5 10,7 4,2 8,3 13,3l18 0c4,0 9,-1 13,-3 4,-2 7,-4 10,-7 3,-3 5,-6 7,-10 2,-4 3,-9 3,-13l-1 -19c0,-8 -1,-14 -3,-19 -1,-6 -4,-10 -6,-13 -3,-4 -5,-6 -8,-8 -2,-2 -4,-3 -6,-5l-43 -35c-6,-5 -10,-10 -13,-15 -2,-5 -4,-9 -4,-13 -1,-4 -1,-7 -1,-9 1,-2 1,-4 1,-4 0,-4 1,-8 3,-12 1,-4 4,-8 7,-11 2,-3 6,-5 10,-7 4,-2 8,-3 13,-3l18 0c4,0 9,1 13,3 4,2 7,4 10,7 3,3 5,7 7,11 2,4 3,8 3,12l0 10 0 -10c0,-4 -1,-8 -3,-12 -2,-4 -4,-8 -7,-11 -3,-3 -6,-5 -10,-7 -4,-2 -9,-3 -13,-3l-18 0c-5,0 -9,1 -13,3 -4,2 -8,4 -10,7 -3,3 -6,7 -7,11 -2,4 -3,8 -3,12 0,0 0,2 -1,4 0,2 0,5 1,9 0,4 2,8 4,13 3,5 7,10 13,15l43 35c2,2 4,3 6,5 3,2 5,4 8,8 2,3 5,7 6,13 2,5 3,11 3,19l1 19c0,4 -1,9 -3,13 -2,4 -4,7 -7,10 -3,3 -6,5 -10,7 -4,2 -9,3 -13,3l-18 0c-5,0 -9,-1 -13,-3 -4,-2 -8,-4 -10,-7 -3,-3 -6,-6 -7,-10 -2,-4 -3,-9 -3,-13l0 -18 0 18z"/>
  <polygon id="1" class="fil1 str2" points="5504,6876 5504,7077 "/>
  <polygon id="2" class="fil1 str2" points="5627,7077 5627,6975 5696,6975 5627,6975 5627,6876 5696,6876 5627,6876 5627,7077 5702,7077 "/>
  <path id="3" class="fil1 str2" d="M5799 7077l0 -201 50 0c4,0 7,0 11,2 3,1 6,3 8,6 3,2 5,5 6,8 2,4 2,7 2,11l0 45c0,7 -2,14 -8,19 -5,5 -11,8 -19,8 4,0 8,1 11,2 3,2 6,4 8,7 3,3 5,6 6,10 2,3 2,7 2,11l0 45c0,3 0,7 -2,10 -1,4 -3,6 -6,9 -2,2 -5,4 -8,6 -4,1 -7,2 -11,2l-50 0zm0 -201l50 0c4,0 7,0 11,2 3,1 6,3 8,6 3,2 5,5 6,8 2,4 2,7 2,11l0 45c0,4 0,7 -2,10 -1,4 -3,7 -6,9 -2,3 -5,4 -8,6 -4,1 -7,2 -11,2l-50 0 0 -99zm0 201l0 -102 50 0c4,0 7,1 11,2 3,2 6,4 8,7 3,3 5,6 6,10 2,3 2,7 2,11l0 45c0,3 0,7 -2,10 -1,4 -3,6 -6,9 -2,2 -5,4 -8,6 -4,1 -7,2 -11,2l-50 0z"/>
  <polygon id="4" class="fil1 str2" points="5988,7077 5988,6975 6058,6975 5988,6975 5988,6876 6058,6876 5988,6876 5988,7077 6064,7077 "/>
  <polygon id="5" class="fil1 str2" points="6160,6876 6254,7077 6254,6876 6254,7077 6160,6876 6160,7077 "/>
  <path class="fil1 str2" d="M5771 6237c0,5 1,9 3,13 1,4 4,7 7,10 3,3 6,6 10,7 4,2 8,3 13,3l18 0c5,0 9,-1 13,-3 4,-1 7,-4 10,-7 3,-3 5,-6 7,-10 2,-4 3,-8 3,-13l0 -19c0,-7 -1,-14 -3,-19 -2,-5 -4,-10 -7,-13 -2,-3 -5,-6 -8,-8 -2,-2 -4,-3 -6,-4l-43 -36c-6,-5 -10,-10 -13,-15 -2,-4 -4,-9 -4,-13 -1,-3 -1,-6 0,-9 0,-2 0,-3 0,-3 0,-5 1,-9 3,-13 1,-4 4,-8 7,-11 3,-3 6,-5 10,-7 4,-2 8,-2 13,-2l18 0c5,0 9,0 13,2 4,2 7,4 10,7 3,3 5,7 7,11 2,4 3,8 3,13l0 9 0 -9c0,-5 -1,-9 -3,-13 -2,-4 -4,-8 -7,-11 -3,-3 -6,-5 -10,-7 -4,-2 -8,-2 -13,-2l-18 0c-5,0 -9,0 -13,2 -4,2 -7,4 -10,7 -3,3 -6,7 -7,11 -2,4 -3,8 -3,13 0,0 0,1 0,3 -1,3 -1,6 0,9 0,4 2,9 4,13 3,5 7,10 13,15l43 36c2,1 4,2 6,4 3,2 6,5 8,8 3,3 5,8 7,13 2,5 3,12 3,19l0 19c0,5 -1,9 -3,13 -2,4 -4,7 -7,10 -3,3 -6,6 -10,7 -4,2 -8,3 -13,3l-18 0c-5,0 -9,-1 -13,-3 -4,-1 -7,-4 -10,-7 -3,-3 -6,-6 -7,-10 -2,-4 -3,-8 -3,-13l0 -18 0 18z"/>
  <polygon id="1" class="fil1 str2" points="5960,6268 5960,6166 6030,6166 5960,6166 5960,6067 6030,6067 5960,6067 5960,6268 6036,6268 "/>
  <path id="2" class="fil1 str2" d="M6192 6234c0,5 -1,9 -2,14 -2,4 -5,7 -7,10 -3,3 -7,5 -11,7 -4,2 -8,3 -13,3l-10 0c-5,0 -9,-1 -13,-3 -4,-2 -8,-4 -11,-7 -3,-3 -5,-6 -7,-10 -2,-5 -3,-9 -3,-14l0 -137c0,-5 1,-9 3,-14 2,-4 4,-7 7,-11 3,-3 7,-5 11,-7 4,-2 8,-2 13,-2l10 0c5,0 9,0 13,2 4,2 8,4 11,7 2,4 5,7 7,11 1,5 2,9 2,14l0 16 0 -16c0,-5 -1,-9 -2,-14 -2,-4 -5,-7 -7,-11 -3,-3 -7,-5 -11,-7 -4,-2 -8,-2 -13,-2l-10 0c-5,0 -9,0 -13,2 -4,2 -8,4 -11,7 -3,4 -5,7 -7,11 -2,5 -3,9 -3,14l0 137c0,5 1,9 3,14 2,4 4,7 7,10 3,3 7,5 11,7 4,2 8,3 13,3l10 0c5,0 9,-1 13,-3 4,-2 8,-4 11,-7 2,-3 5,-6 7,-10 1,-5 2,-9 2,-14l0 -12 0 12z"/>
  <polygon id="3" class="fil1 str2" points="6303,6166 6388,6166 6388,6268 6388,6067 6388,6166 6303,6166 6303,6067 6303,6268 "/>
  <path id="4" class="fil1 str2" d="M6491 6237c0,5 1,9 3,13 1,4 4,7 7,10 3,3 6,6 10,7 4,2 8,3 13,3l18 0c5,0 9,-1 13,-3 4,-1 7,-4 10,-7 3,-3 5,-6 7,-10 2,-4 3,-8 3,-13l0 -19c0,-7 -1,-14 -3,-19 -2,-5 -4,-10 -7,-13 -2,-3 -5,-6 -8,-8 -2,-2 -4,-3 -6,-4l-43 -36c-6,-5 -10,-10 -13,-15 -2,-4 -4,-9 -4,-13 -1,-3 -1,-6 0,-9 0,-2 0,-3 0,-3 0,-5 1,-9 3,-13 1,-4 4,-8 7,-11 3,-3 6,-5 10,-7 4,-2 8,-2 13,-2l18 0c5,0 9,0 13,2 4,2 7,4 10,7 3,3 5,7 7,11 2,4 3,8 3,13l0 9 0 -9c0,-5 -1,-9 -3,-13 -2,-4 -4,-8 -7,-11 -3,-3 -6,-5 -10,-7 -4,-2 -8,-2 -13,-2l-18 0c-5,0 -9,0 -13,2 -4,2 -7,4 -10,7 -3,3 -6,7 -7,11 -2,4 -3,8 -3,13 0,0 0,1 0,3 -1,3 -1,6 0,9 0,4 2,9 4,13 3,5 7,10 13,15l43 36c2,1 4,2 6,4 3,2 6,5 8,8 3,3 5,8 7,13 2,5 3,12 3,19l0 19c0,5 -1,9 -3,13 -2,4 -4,7 -7,10 -3,3 -6,6 -10,7 -4,2 -8,3 -13,3l-18 0c-5,0 -9,-1 -13,-3 -4,-1 -7,-4 -10,-7 -3,-3 -6,-6 -7,-10 -2,-4 -3,-8 -3,-13l0 -18 0 18z"/>
  <circle class="fil0 str2" cx="5805" cy="4484" r="107"/>
  <circle class="fil0 str0" cx="5805" cy="4430" r="18"/>
  <circle class="fil0 str0" cx="5805" cy="4537" r="18"/>
  <circle class="fil0 str2" cx="4544" cy="7480" r="107"/>
  <circle class="fil0 str0" cx="4544" cy="7427" r="18"/>
  <circle class="fil0 str0" cx="4544" cy="7534" r="18"/>
  <path class="fil1 str2" d="M3789 4413l40 145 -40 -145 -39 145 39 -145zm28 104l-56 0 56 0z"/>
  <path id="1" class="fil1 str2" d="M3956 4558l0 -53c0,-3 0,-5 -1,-8 -1,-3 -2,-5 -4,-7 -2,-2 -5,-4 -8,-5 -3,-2 -6,-2 -11,-2 5,0 8,0 11,2 3,1 6,3 8,5 2,2 3,4 4,7 1,3 1,5 1,8l0 53zm-57 0l0 -145 30 0c3,0 7,1 11,2 3,2 6,3 9,6 3,2 5,5 7,9 2,3 3,7 3,10l0 15c0,4 -1,8 -3,11 -2,3 -4,6 -7,9 -3,2 -6,4 -9,6 -4,1 -8,2 -11,2l-30 0 30 0c3,0 7,-1 11,-2 3,-2 6,-4 9,-6 3,-3 5,-6 7,-9 2,-3 3,-7 3,-11l0 -15c0,-3 -1,-7 -3,-10 -2,-4 -4,-7 -7,-9 -3,-3 -6,-4 -10,-6 -3,-1 -7,-2 -10,-2l-30 0 0 145z"/>
  <path id="2" class="fil1 str2" d="M4039 4558l0 -145 35 0c3,0 7,1 10,2 3,1 5,3 7,5 3,3 4,5 6,8 1,3 2,7 2,10l0 95c0,4 -1,7 -2,10 -2,3 -3,5 -6,8 -2,2 -4,4 -7,5 -3,1 -7,2 -10,2l-35 0zm0 0l0 -145 35 0c3,0 7,1 10,2 3,1 5,3 7,5 3,3 4,5 6,8 1,3 2,7 2,10l0 95c0,4 -1,7 -2,10 -2,3 -3,5 -6,8 -2,2 -4,4 -7,5 -3,1 -7,2 -10,2l-35 0z"/>
  <path id="3" class="fil1 str2" d="M4231 4535c0,3 -1,6 -2,9 -1,3 -3,6 -6,8 -2,2 -4,4 -7,5 -3,2 -7,2 -10,2l-13 0c-3,0 -7,0 -10,-2 -3,-1 -5,-3 -8,-5 -2,-2 -4,-5 -5,-8 -1,-3 -2,-6 -2,-9l0 -122 0 122c0,3 1,6 2,9 1,3 3,6 5,8 3,2 5,4 8,5 3,2 7,2 10,2l13 0c3,0 7,0 10,-2 3,-1 5,-3 7,-5 3,-2 5,-5 6,-8 1,-3 2,-6 2,-9l0 -122 0 122z"/>
  <polygon id="4" class="fil1 str2" points="4311,4413 4311,4558 "/>
  <polygon id="5" class="fil1 str2" points="4399,4413 4466,4558 4466,4413 4466,4558 4399,4413 4399,4558 "/>
  <path id="6" class="fil1 str2" d="M4573 4561c-4,0 -7,-1 -10,-3 -3,-1 -6,-3 -8,-5 -3,-3 -5,-5 -6,-9 -1,-3 -2,-6 -2,-10l0 -97c0,-3 1,-7 2,-10 1,-3 3,-6 6,-9 2,-2 5,-4 8,-5 3,-2 6,-3 10,-3l11 0c4,0 7,1 10,3 3,1 6,3 8,5 3,3 4,6 6,9 1,3 2,7 2,10l0 97c0,4 -1,7 -2,10 -2,4 -3,6 -6,9 -2,2 -5,4 -8,5 -3,2 -6,3 -10,3l-11 0zm0 0c-4,0 -7,-1 -10,-3 -3,-1 -6,-3 -8,-5 -3,-3 -5,-5 -6,-9 -1,-3 -2,-6 -2,-10l0 -97c0,-3 1,-7 2,-10 1,-3 3,-6 6,-9 2,-2 5,-4 8,-5 3,-2 6,-3 10,-3l11 0c4,0 7,1 10,3 3,1 6,3 8,5 3,3 4,6 6,9 1,3 2,7 2,10l0 97c0,4 -1,7 -2,10 -2,4 -3,6 -6,9 -2,2 -5,4 -8,5 -3,2 -6,3 -10,3l-11 0z"/>
  <path class="fil1 str2" d="M5735 6594l0 -100 24 0c3,0 5,1 7,1 2,1 4,3 5,4 2,2 3,4 4,6 1,2 1,4 1,6l0 66c0,2 0,4 -1,6 -1,2 -2,4 -4,6 -1,1 -3,2 -5,3 -2,1 -4,2 -7,2l-24 0zm0 0l0 -100 24 0c3,0 5,1 7,1 2,1 4,3 5,4 2,2 3,4 4,6 1,2 1,4 1,6l0 66c0,2 0,4 -1,6 -1,2 -2,4 -4,6 -1,1 -3,2 -5,3 -2,1 -4,2 -7,2l-24 0z"/>
  <polygon id="1" class="fil1 str2" points="5856,6494 5817,6494 5856,6494 5825,6593 "/>
  <path class="fil1 str2" d="M6404 7393l0 -99 24 0c2,0 5,0 7,1 2,1 3,2 5,4 2,1 3,3 4,5 0,2 1,5 1,7l0 65c0,3 -1,5 -1,7 -1,2 -2,4 -4,5 -2,2 -3,3 -5,4 -2,1 -5,1 -7,1l-24 0zm0 0l0 -99 24 0c2,0 5,0 7,1 2,1 3,2 5,4 2,1 3,3 4,5 0,2 1,5 1,7l0 65c0,3 -1,5 -1,7 -1,2 -2,4 -4,5 -2,2 -3,3 -5,4 -2,1 -5,1 -7,1l-24 0z"/>
  <polygon id="1" class="fil1 str2" points="6506,7294 6506,7393 6506,7294 6493,7307 "/>
  <path id="2" class="fil1 str2" d="M6575 7393c-2,0 -4,0 -6,-1 -2,-1 -3,-2 -5,-3 -1,-2 -2,-3 -3,-5 -1,-2 -1,-4 -1,-7l0 -67c0,-3 0,-5 1,-6 1,-2 2,-4 3,-6 2,-1 3,-2 5,-3 2,-1 4,-1 6,-1l7 0c2,0 4,0 6,1 2,1 4,2 5,3 2,2 3,4 4,6 0,1 1,3 1,6l0 67c0,3 -1,5 -1,7 -1,2 -2,3 -4,5 -1,1 -3,2 -5,3 -2,1 -4,1 -6,1l-7 0zm0 0c-2,0 -4,0 -6,-1 -2,-1 -3,-2 -5,-3 -1,-2 -2,-3 -3,-5 -1,-2 -1,-4 -1,-7l0 -67c0,-3 0,-5 1,-6 1,-2 2,-4 3,-6 2,-1 3,-2 5,-3 2,-1 4,-1 6,-1l7 0c2,0 4,0 6,1 2,1 4,2 5,3 2,2 3,4 4,6 0,1 1,3 1,6l0 67c0,3 -1,5 -1,7 -1,2 -2,3 -4,5 -1,1 -3,2 -5,3 -2,1 -4,1 -6,1l-7 0z"/>
  <path class="fil1 str2" d="M6049 5877l0 -100 24 0c2,0 4,1 7,2 2,1 3,2 5,3 1,2 3,4 4,6 0,2 1,4 1,6l0 66c0,2 -1,4 -1,6 -1,3 -3,4 -4,6 -2,1 -3,3 -5,4 -3,0 -5,1 -7,1l-24 0zm0 0l0 -100 24 0c2,0 4,1 7,2 2,1 3,2 5,3 1,2 3,4 4,6 0,2 1,4 1,6l0 66c0,2 -1,4 -1,6 -1,3 -3,4 -4,6 -2,1 -3,3 -5,4 -3,0 -5,1 -7,1l-24 0z"/>
  <path id="1" class="fil1 str2" d="M6138 5836c0,-2 0,-4 1,-6 1,-2 2,-4 4,-5 1,-2 3,-3 5,-4 2,-1 4,-1 6,-1l6 0c2,0 4,0 6,1 2,1 4,2 5,4 1,1 3,3 4,5 0,2 1,4 1,6l0 24c0,2 -1,5 -1,7 -1,2 -3,3 -4,5 -1,1 -3,3 -5,3 -2,1 -4,2 -6,2l-6 0c-2,0 -4,-1 -6,-2 -2,0 -4,-2 -5,-3 -2,-2 -3,-3 -4,-5 -1,-2 -1,-5 -1,-7l0 -66c0,-3 0,-5 1,-7 1,-2 2,-4 4,-5 1,-2 3,-3 5,-3 2,-1 4,-2 6,-2l6 0c2,0 4,1 6,2 2,0 4,1 5,3 1,1 3,3 4,5 0,2 1,4 1,7l0 6 0 -6c0,-3 -1,-5 -1,-7 -1,-2 -3,-4 -4,-5 -1,-2 -3,-3 -5,-3 -2,-1 -4,-2 -6,-2l-6 0c-2,0 -4,1 -6,2 -2,0 -4,1 -5,3 -2,1 -3,3 -4,5 -1,2 -1,4 -1,7l0 66c0,2 0,5 1,7 1,2 2,3 4,5 1,1 3,3 5,3 2,1 4,2 6,2l6 0c2,0 4,-1 6,-2 2,0 4,-2 5,-3 1,-2 3,-3 4,-5 0,-2 1,-5 1,-7l0 -24c0,-2 -1,-4 -1,-6 -1,-2 -3,-4 -4,-5 -1,-2 -3,-3 -5,-4 -2,-1 -4,-1 -6,-1l-6 0c-2,0 -4,0 -6,1 -2,1 -4,2 -5,4 -2,1 -3,3 -4,5 -1,2 -1,4 -1,6z"/>
  <path class="fil1 str2" d="M6383 5118l0 -99 24 0c2,0 5,0 7,1 2,1 4,2 5,4 2,2 3,3 4,5 1,2 1,5 1,7l0 65c0,3 0,5 -1,7 -1,2 -2,4 -4,5 -1,2 -3,3 -5,4 -2,1 -5,1 -7,1l-24 0zm0 0l0 -99 24 0c2,0 5,0 7,1 2,1 4,2 5,4 2,2 3,3 4,5 1,2 1,5 1,7l0 65c0,3 0,5 -1,7 -1,2 -2,4 -4,5 -1,2 -3,3 -5,4 -2,1 -5,1 -7,1l-24 0z"/>
  <path id="1" class="fil1 str2" d="M6465 5103c0,2 0,4 1,6 0,2 2,3 3,5 1,1 3,2 5,3 1,1 3,1 6,1l7 0c2,0 4,0 6,-1 2,-1 4,-2 5,-3 1,-2 2,-3 3,-5 1,-2 1,-4 1,-6l0 -21c0,-2 0,-4 -1,-6 -1,-2 -2,-3 -3,-5 -2,-1 -3,-2 -5,-3 -2,-1 -4,-1 -6,-1l-7 0 7 0c2,0 4,-1 6,-2 2,0 3,-1 5,-3 1,-1 2,-3 3,-5 1,-1 1,-3 1,-5l0 -18c0,-2 0,-4 -1,-6 -1,-2 -2,-3 -3,-5 -1,-1 -3,-2 -5,-3 -2,-1 -4,-1 -6,-1l-7 0c-3,0 -5,0 -6,1 -2,1 -4,2 -5,3 -1,2 -3,3 -3,5 -1,2 -1,4 -1,6l0 7 0 -7c0,-2 0,-4 1,-6 0,-2 2,-3 3,-5 1,-1 3,-2 5,-3 1,-1 3,-1 6,-1l7 0c2,0 4,0 6,1 2,1 4,2 5,3 1,2 2,3 3,5 1,2 1,4 1,6l0 18c0,2 0,4 -1,5 -1,2 -2,4 -3,5 -2,2 -3,3 -5,3 -2,1 -4,2 -6,2l-7 0 7 0c2,0 4,0 6,1 2,1 3,2 5,3 1,2 2,3 3,5 1,2 1,4 1,6l0 21c0,2 0,4 -1,6 -1,2 -2,3 -3,5 -1,1 -3,2 -5,3 -2,1 -4,1 -6,1l-7 0c-3,0 -5,0 -6,-1 -2,-1 -4,-2 -5,-3 -1,-2 -3,-3 -3,-5 -1,-2 -1,-4 -1,-6l0 -5 0 5z"/>
  <polygon class="fil1 str2" points="6451,4306 6476,4306 6426,4306 6451,4306 6451,4406 "/>
  <path id="1" class="fil1 str2" d="M6559 4306l-50 100 50 -100zm2 100l-49 -100 49 100z"/>
  <g id="_2510204856208">
   <circle class="fil0 str2" cx="7179" cy="7480" r="107"/>
   <circle class="fil0 str0" cx="7179" cy="7427" r="18"/>
   <circle class="fil0 str0" cx="7179" cy="7534" r="18"/>
  </g>
  <g id="_2510204856240">
   <circle class="fil0 str2" cx="5807" cy="7480" r="107"/>
   <circle class="fil0 str0" cx="5807" cy="7427" r="18"/>
   <circle class="fil0 str0" cx="5807" cy="7534" r="18"/>
  </g>
  <g id="_2510204863536">
   <circle class="fil0 str2" cx="5807" cy="5233" r="107"/>
   <circle class="fil0 str0" cx="5807" cy="5180" r="18"/>
   <circle class="fil0 str0" cx="5807" cy="5286" r="18"/>
  </g>
  <g id="_2510204832624">
   <circle class="fil0 str2" cx="7179" cy="5233" r="107"/>
   <circle class="fil0 str0" cx="7179" cy="5180" r="18"/>
   <circle class="fil0 str0" cx="7179" cy="5286" r="18"/>
  </g>
  <g id="_2510204835664">
   <circle class="fil0 str2" cx="7179" cy="4484" r="107"/>
   <circle class="fil0 str0" cx="7179" cy="4430" r="18"/>
   <circle class="fil0 str0" cx="7179" cy="4537" r="18"/>
  </g>
  <g id="_2510204839984">
   <circle class="fil0 str2" cx="6946" cy="5982" r="107"/>
   <circle class="fil0 str0" cx="6946" cy="5929" r="18"/>
   <circle class="fil0 str0" cx="6946" cy="6036" r="18"/>
  </g>
  <g id="_2510204840592">
   <circle class="fil0 str2" cx="5413" cy="5982" r="107"/>
   <circle class="fil0 str0" cx="5413" cy="5929" r="18"/>
   <circle class="fil0 str0" cx="5413" cy="6036" r="18"/>
  </g>
  <g id="_2510204841904">
   <circle class="fil0 str2" cx="4552" cy="6731" r="107"/>
   <circle class="fil0 str0" cx="4552" cy="6678" r="18"/>
   <circle class="fil0 str0" cx="4552" cy="6785" r="18"/>
  </g>
  <g id="_2510204842672">
   <circle class="fil0 str2" cx="5807" cy="6731" r="107"/>
   <circle class="fil0 str0" cx="5807" cy="6678" r="18"/>
   <circle class="fil0 str0" cx="5807" cy="6785" r="18"/>
  </g>
  <g id="_2510204845936">
   <circle class="fil0 str2" cx="7104" cy="6731" r="107"/>
   <circle class="fil0 str0" cx="7104" cy="6678" r="18"/>
   <circle class="fil0 str0" cx="7104" cy="6785" r="18"/>
  </g>
  <rect class="fil0 str0" transform="matrix(-2.20815E-014 -0.83375 -0.964171 2.55356E-014 5046.51 6102.88)" width="64.1282" height="184.846"/>
  <rect class="fil0 str0" transform="matrix(-2.20815E-014 -0.83375 -0.964171 2.55356E-014 5046.51 5871.19)" width="64.1282" height="184.846"/>
  <line class="fil0 str1" x1="5121" y1="4858" x2="5121" y2= "5608" />
  <line class="fil0 str1" x1="7864" y1="4858" x2="7864" y2= "5608" />
  <line class="fil0 str1" x1="3749" y1="6357" x2="4435" y2= "6357" />
  <line class="fil0 str1" x1="7864" y1="6357" x2="7864" y2= "7106" />
  <rect class="fil0 str1" x="3637" y="4218" width="1086" height="535"/>
  <line class="fil0 str1" x1="5823" y1="4430" x2="7161" y2= "4430" />
  <line class="fil0 str1" x1="5824" y1="5180" x2="7161" y2= "5180" />
  <line class="fil0 str1" x1="5431" y1="5929" x2="6928" y2= "5929" />
  <line class="fil0 str1" x1="4570" y1="6678" x2="5789" y2= "6678" />
  <line class="fil0 str1" x1="5824" y1="6678" x2="7086" y2= "6678" />
  <line class="fil0 str1" x1="5824" y1="7427" x2="7161" y2= "7427" />
  <line class="fil0 str1" x1="3745" y1="7427" x2="4526" y2= "7427" />
  <path class="fil0 str1" d="M7161 792l-6174 0c0,0 -584,-38 -586,321 -2,359 586,428 586,428l6209 0c0,0 566,-24 553,321 -12,345 -231,428 -2953,428l-2744 0c-1016,0 -1655,-23 -1651,321 5,345 412,428 586,428l5789 0c657,0 1095,10 1088,321 -6,312 -391,428 -668,428l-6209 0c0,0 -603,4 -586,321 17,318 416,428 586,428l1408 0c0,0 532,-45 513,321 -19,367 -267,428 -513,428l-1408 0c0,0 -584,-44 -586,322 -2,366 435,428 586,428l1408 0c668,0 751,144 750,321 -1,176 -56,428 -219,428l-1690 0c0,0 -833,-31 -835,321 -2,351 561,428 561,428l844 0c324,0 186,-362 475,-359 290,3 791,6 963,3 172,-2 133,354 299,355 167,1 185,1 185,1l3468 0c180,0 497,-69 497,-428 0,-359 -449,-321 -572,-321l-2586 0c-145,0 -341,-108 -338,-428 3,-321 311,-321 1198,-321l1569 0c314,0 760,-128 741,-428 -19,-301 -358,-322 -509,-322l-1407 0c-245,0 -544,-75 -550,-428 -6,-353 549,-321 549,-321l1408 0"/>
 </g>
</svg>
